<svg width="44" height="17" viewBox="0 0 44 17" fill="none" xmlns="http://www.w3.org/2000/svg">
<path d="M8 8.95V11.05C8 12.8 7.3 13.5 5.55 13.5H3.45C1.7 13.5 1 12.8 1 11.05V8.95C1 7.2 1.7 6.5 3.45 6.5H5.55C7.3 6.5 8 7.2 8 8.95Z" stroke="#FF7F00" stroke-width="1.5" stroke-linecap="round" stroke-linejoin="round"/>
<path d="M11 5.95V8.05C11 9.8 10.3 10.5 8.55 10.5H8V8.95C8 7.2 7.3 6.5 5.55 6.5H4V5.95C4 4.2 4.7 3.5 6.45 3.5H8.55C10.3 3.5 11 4.2 11 5.95Z" stroke="#FF7F00" stroke-width="1.5" stroke-linecap="round" stroke-linejoin="round"/>
<path d="M20.74 12.608C19.9 12.608 19.18 12.432 18.58 12.08C17.98 11.728 17.516 11.228 17.188 10.58C16.868 9.924 16.708 9.152 16.708 8.264C16.708 7.6 16.8 7.004 16.984 6.476C17.168 5.94 17.432 5.484 17.776 5.108C18.12 4.724 18.54 4.432 19.036 4.232C19.54 4.032 20.108 3.932 20.74 3.932C21.22 3.932 21.68 4 22.12 4.136C22.568 4.272 22.952 4.464 23.272 4.712C23.4 4.8 23.484 4.9 23.524 5.012C23.564 5.124 23.568 5.232 23.536 5.336C23.512 5.432 23.46 5.516 23.38 5.588C23.308 5.652 23.216 5.688 23.104 5.696C22.992 5.696 22.872 5.652 22.744 5.564C22.464 5.348 22.156 5.192 21.82 5.096C21.492 4.992 21.14 4.94 20.764 4.94C20.148 4.94 19.624 5.072 19.192 5.336C18.768 5.592 18.444 5.968 18.22 6.464C18.004 6.952 17.896 7.552 17.896 8.264C17.896 8.968 18.004 9.572 18.22 10.076C18.444 10.572 18.768 10.952 19.192 11.216C19.624 11.472 20.148 11.6 20.764 11.6C21.14 11.6 21.496 11.548 21.832 11.444C22.176 11.34 22.492 11.18 22.78 10.964C22.908 10.876 23.024 10.836 23.128 10.844C23.24 10.852 23.332 10.888 23.404 10.952C23.476 11.008 23.524 11.088 23.548 11.192C23.58 11.288 23.58 11.388 23.548 11.492C23.516 11.596 23.444 11.688 23.332 11.768C23.004 12.048 22.612 12.26 22.156 12.404C21.708 12.54 21.236 12.608 20.74 12.608ZM27.0358 12.608C26.4598 12.608 25.9598 12.484 25.5358 12.236C25.1118 11.988 24.7838 11.636 24.5518 11.18C24.3198 10.724 24.2038 10.188 24.2038 9.572C24.2038 9.108 24.2678 8.692 24.3958 8.324C24.5318 7.948 24.7238 7.628 24.9718 7.364C25.2198 7.1 25.5158 6.9 25.8598 6.764C26.2118 6.62 26.6038 6.548 27.0358 6.548C27.6118 6.548 28.1118 6.672 28.5358 6.92C28.9598 7.168 29.2878 7.52 29.5198 7.976C29.7518 8.424 29.8678 8.956 29.8678 9.572C29.8678 10.036 29.7998 10.456 29.6638 10.832C29.5358 11.208 29.3478 11.528 29.0998 11.792C28.8518 12.056 28.5518 12.26 28.1998 12.404C27.8558 12.54 27.4678 12.608 27.0358 12.608ZM27.0358 11.744C27.3878 11.744 27.6918 11.66 27.9478 11.492C28.2118 11.324 28.4118 11.08 28.5478 10.76C28.6918 10.44 28.7638 10.044 28.7638 9.572C28.7638 8.868 28.6078 8.332 28.2958 7.964C27.9838 7.596 27.5638 7.412 27.0358 7.412C26.6918 7.412 26.3878 7.496 26.1238 7.664C25.8678 7.824 25.6678 8.064 25.5238 8.384C25.3798 8.704 25.3078 9.1 25.3078 9.572C25.3078 10.276 25.4638 10.816 25.7758 11.192C26.0958 11.56 26.5158 11.744 27.0358 11.744ZM31.8066 14.744C31.6386 14.744 31.5066 14.696 31.4106 14.6C31.3146 14.504 31.2666 14.368 31.2666 14.192V7.124C31.2666 6.94 31.3146 6.804 31.4106 6.716C31.5066 6.62 31.6386 6.572 31.8066 6.572C31.9826 6.572 32.1146 6.62 32.2026 6.716C32.2986 6.804 32.3466 6.94 32.3466 7.124V8.216L32.2146 8C32.3426 7.56 32.5946 7.208 32.9706 6.944C33.3466 6.68 33.7986 6.548 34.3266 6.548C34.8466 6.548 35.2986 6.672 35.6826 6.92C36.0666 7.16 36.3666 7.508 36.5826 7.964C36.7986 8.412 36.9066 8.948 36.9066 9.572C36.9066 10.188 36.7986 10.728 36.5826 11.192C36.3746 11.648 36.0746 12 35.6826 12.248C35.2986 12.488 34.8466 12.608 34.3266 12.608C33.8066 12.608 33.3586 12.476 32.9826 12.212C32.6066 11.948 32.3546 11.6 32.2266 11.168H32.3586V14.192C32.3586 14.368 32.3106 14.504 32.2146 14.6C32.1186 14.696 31.9826 14.744 31.8066 14.744ZM34.0746 11.744C34.4186 11.744 34.7186 11.66 34.9746 11.492C35.2386 11.324 35.4426 11.08 35.5866 10.76C35.7306 10.44 35.8026 10.044 35.8026 9.572C35.8026 8.868 35.6466 8.332 35.3346 7.964C35.0226 7.596 34.6026 7.412 34.0746 7.412C33.7226 7.412 33.4146 7.496 33.1506 7.664C32.8946 7.824 32.6946 8.064 32.5506 8.384C32.4146 8.704 32.3466 9.1 32.3466 9.572C32.3466 10.276 32.5026 10.816 32.8146 11.192C33.1266 11.56 33.5466 11.744 34.0746 11.744ZM39.5598 14.744C39.4318 14.744 39.3238 14.708 39.2358 14.636C39.1558 14.572 39.1078 14.48 39.0918 14.36C39.0838 14.248 39.1078 14.128 39.1638 14L39.9798 12.152V12.608L37.7118 7.328C37.6558 7.192 37.6358 7.068 37.6518 6.956C37.6678 6.844 37.7198 6.752 37.8078 6.68C37.9038 6.608 38.0318 6.572 38.1918 6.572C38.3278 6.572 38.4358 6.604 38.5158 6.668C38.5958 6.732 38.6718 6.844 38.7438 7.004L40.6278 11.648H40.2918L42.2118 7.004C42.2758 6.844 42.3518 6.732 42.4398 6.668C42.5278 6.604 42.6478 6.572 42.7998 6.572C42.9358 6.572 43.0398 6.608 43.1118 6.68C43.1918 6.752 43.2398 6.844 43.2558 6.956C43.2718 7.068 43.2478 7.188 43.1838 7.316L40.1598 14.312C40.0798 14.48 39.9958 14.592 39.9078 14.648C39.8278 14.712 39.7118 14.744 39.5598 14.744Z" fill="#FF7F00"/>
<path d="M16 13.628H24.1V13.964H16V13.628ZM23.6758 13.628H30.3958V13.964H23.6758V13.628ZM30.3906 13.628H37.4346V13.964H30.3906V13.628ZM37.3398 13.628H43.5438V13.964H37.3398V13.628Z" fill="#FF7F00"/>
</svg>
